<svg width="36" height="37" viewBox="0 0 36 37" fill="none" xmlns="http://www.w3.org/2000/svg">
<g clip-path="url(#clip0_324_4171)">
<path d="M26.1626 11.4532C25.73 11.4535 25.2978 11.4821 24.869 11.5392C23.9151 11.1181 22.8836 10.9018 21.8413 10.9046C21.6676 10.9046 21.4932 10.9107 21.3195 10.9229C19.4917 7.37091 15.5159 5.47815 11.6067 6.29888C7.69746 7.11962 4.81838 10.4514 4.57319 14.4385C3.31977 14.846 2.21501 15.6165 1.39928 16.6522C0.456503 17.8551 -0.0582913 19.3382 -0.0635613 20.8668L-0.0707728 21.0923C-0.0707728 21.1037 -0.0713275 21.115 -0.0716049 21.1308C-0.077707 22.5191 0.470926 23.8524 1.45253 24.834C2.43413 25.8156 3.76744 26.3645 5.15566 26.3581H17.8799C19.6581 29.2236 22.7901 30.9677 26.1624 30.9705C31.5475 30.9705 35.9285 26.5969 35.9285 21.2118C35.9285 15.8267 31.5475 11.4532 26.1626 11.4532ZM5.15566 24.938C4.14438 24.9444 3.17249 24.5452 2.45715 23.8302C1.7421 23.1151 1.34269 22.1435 1.34852 21.1322L1.35573 20.8976C1.35573 20.8904 1.35573 20.8854 1.35573 20.8784C1.35767 19.6647 1.7654 18.4864 2.51402 17.5309C3.24543 16.5998 4.27225 15.9452 5.42526 15.6747C5.74784 15.5999 5.97612 15.3125 5.97612 14.9813C5.97695 11.459 8.44302 8.41853 11.8893 7.69072C15.3353 6.96318 18.8205 8.74721 20.245 11.9683C20.3734 12.2584 20.6788 12.4282 20.9931 12.3841C21.2738 12.3447 21.557 12.325 21.8402 12.325C21.9325 12.325 22.0249 12.3275 22.1164 12.3316C18.636 13.9132 16.3996 17.3817 16.3957 21.2046C16.3927 22.4869 16.6476 23.7564 17.1452 24.938H5.15566ZM26.1626 29.5653C21.5534 29.5653 17.8167 25.8286 17.8167 21.2193C17.8167 16.61 21.5534 12.8733 26.1626 12.8733C30.7719 12.8733 34.5084 16.61 34.5084 21.2193C34.5034 25.8264 30.7697 29.56 26.1626 29.5653Z" fill="#005BD6"/>
<path d="M26.6241 17.4274C26.3487 17.1603 25.9113 17.1603 25.6358 17.4274L22.9271 20.0524C22.6453 20.3256 22.6383 20.7749 22.9113 21.0567C23.0389 21.1915 23.2155 21.2695 23.4011 21.2725C23.5869 21.2753 23.7658 21.2032 23.8976 21.0723L25.3843 19.6141V24.5008C25.3843 24.893 25.7024 25.2109 26.0943 25.2109C26.4865 25.2109 26.8044 24.893 26.8044 24.5008V19.6141L28.3269 21.0725C28.4625 21.2012 28.6428 21.2731 28.8297 21.2728C29.0233 21.2731 29.2089 21.1951 29.3442 21.0567C29.6177 20.7758 29.6119 20.3261 29.3306 20.0527L26.6241 17.4274Z" fill="#005BD6"/>
</g>
<defs>
<clipPath id="clip0_324_4171">
<rect width="36" height="36" fill="white" transform="translate(0 0.5)"/>
</clipPath>
</defs>
</svg>
