<svg width="24" height="24" viewBox="0 0 24 24" fill="none" xmlns="http://www.w3.org/2000/svg">
<path fill-rule="evenodd" clip-rule="evenodd" d="M17.056 6H18.944C19.527 6 20 6.473 20 7.056V14.444C20 15.027 19.527 15.5 18.944 15.5H17.056C16.473 15.5 16 15.027 16 14.444V7.056C16 6.473 16.473 6 17.056 6V6Z" stroke="#323232" stroke-width="1.5" stroke-linecap="round" stroke-linejoin="round"/>
<path d="M16 14.4279L12.351 19.1789C11.672 20.0639 10.346 20.0859 9.637 19.2249V19.2249C9.372 18.9039 9.228 18.4999 9.228 18.0839V14.8129H6.132C5.531 14.8129 4.97 14.5129 4.636 14.0139L4.307 13.5229C4.012 13.0819 3.926 12.5329 4.073 12.0239L5.432 7.30194C5.654 6.53094 6.359 5.99994 7.161 5.99994H13.45C13.95 5.99994 14.428 6.20794 14.768 6.57394L16 7.89994" stroke="#323232" stroke-width="1.5" stroke-linecap="round" stroke-linejoin="round"/>
</svg>
